<svg width="50" height="50" viewBox="0 0 50 50" fill="none" xmlns="http://www.w3.org/2000/svg">
  <path fill-rule="evenodd" clip-rule="evenodd" d="M8.33331 10.4166V39.5833C8.33331 43.0352 11.1315 45.8333 14.5833 45.8333H35.4166C38.8685 45.8333 41.6666 43.0352 41.6666 39.5833V18.75C41.6666 15.2982 38.8685 12.5 35.4166 12.5H10.4166C9.26606 12.5 8.33331 11.5672 8.33331 10.4166ZM15.1041 25C15.1041 24.137 15.8037 23.4375 16.6666 23.4375H33.3333C34.1962 23.4375 34.8958 24.137 34.8958 25C34.8958 25.8629 34.1962 26.5625 33.3333 26.5625H16.6666C15.8037 26.5625 15.1041 25.8629 15.1041 25ZM15.1041 32.2916C15.1041 31.4287 15.8037 30.7291 16.6666 30.7291H28.125C28.9879 30.7291 29.6875 31.4287 29.6875 32.2916C29.6875 33.1545 28.9879 33.8541 28.125 33.8541H16.6666C15.8037 33.8541 15.1041 33.1545 15.1041 32.2916Z" fill="black"/>
  <path d="M9.185 8.51479C9.911 8.84037 10.4167 9.56946 10.4167 10.4167H35.4167C36.1361 10.4167 36.8342 10.5078 37.5 10.6792V8.97092C37.5 6.43529 35.2542 4.48754 32.7442 4.84613L10.2492 8.05969C9.84818 8.11698 9.48483 8.27862 9.185 8.51479Z" fill="black"/>
</svg> 
