<svg width="25" height="26" viewBox="0 0 25 26" fill="none" xmlns="http://www.w3.org/2000/svg">
  <path d="M15.6251 23.3367V19.17C15.77 17.8651 15.3959 16.5556 14.5834 15.5242C17.7084 15.5242 20.8334 13.4409 20.8334 9.79502C20.9168 8.49294 20.5522 7.21169 19.7918 6.14919C20.0834 4.95127 20.0834 3.70127 19.7918 2.50336C19.7918 2.50336 18.7501 2.50336 16.6668 4.06586C13.9168 3.54502 11.0834 3.54502 8.33344 4.06586C6.25011 2.50336 5.20844 2.50336 5.20844 2.50336C4.89594 3.70127 4.89594 4.95127 5.20844 6.14919C4.44998 7.2074 4.08185 8.49584 4.16678 9.79502C4.16678 13.4409 7.29178 15.5242 10.4168 15.5242C10.0105 16.0346 9.70844 16.6179 9.53136 17.2429C9.35428 17.8679 9.30219 18.5242 9.37511 19.17V23.3367" stroke="white" stroke-width="2" stroke-linecap="round" stroke-linejoin="round"/>
  <path d="M9.37492 19.1701C4.677 21.2534 4.16659 17.0867 2.08325 17.0867" stroke="white" stroke-width="2" stroke-linecap="round" stroke-linejoin="round"/>
</svg> 
