<svg width="41" height="40" viewBox="0 0 41 40" fill="none" xmlns="http://www.w3.org/2000/svg">
  <path fill-rule="evenodd" clip-rule="evenodd" d="M8 5.40454C6.61928 5.40454 5.5 6.52382 5.5 7.90454V32.9045C5.5 34.2852 6.61928 35.4045 8 35.4045H33C34.3807 35.4045 35.5 34.2852 35.5 32.9045V7.90454C35.5 6.52382 34.3807 5.40454 33 5.40454H8ZM14.7013 12.0757C14.7106 13.6695 13.5177 14.6515 12.102 14.6445C10.7684 14.6375 9.60595 13.5757 9.61298 12.0781C9.62002 10.6695 10.7333 9.53746 12.1794 9.57027C13.6466 9.60309 14.7106 10.6789 14.7013 12.0757ZM20.9662 16.6741H16.7662H16.7638V30.9405H21.2028V30.6077C21.2028 29.9745 21.2023 29.3412 21.2018 28.7077C21.2005 27.018 21.199 25.3265 21.2077 23.6374C21.21 23.2272 21.2287 22.8007 21.3342 22.4092C21.7302 20.9467 23.0452 20.0022 24.5123 20.2344C25.4545 20.3819 26.0778 20.928 26.3403 21.8164C26.5022 22.3717 26.5748 22.9694 26.5818 23.5484C26.6008 25.2944 26.5982 27.0404 26.5955 28.7865C26.5945 29.4029 26.5935 30.0195 26.5935 30.6359V30.9382H31.0467V30.596C31.0467 29.8427 31.0463 29.0895 31.0458 28.3364C31.045 26.4539 31.044 24.5714 31.049 22.6882C31.0513 21.8374 30.96 20.9984 30.7513 20.1757C30.4397 18.9522 29.7952 17.9397 28.7475 17.2085C28.0045 16.6882 27.1888 16.353 26.2772 16.3155C26.1733 16.3112 26.0687 16.3056 25.9635 16.2999C25.4973 16.2747 25.0235 16.2491 24.5778 16.339C23.3028 16.5944 22.1827 17.178 21.3365 18.2069C21.2382 18.3249 21.142 18.4447 20.9985 18.6235L20.9662 18.664V16.6741ZM9.9694 30.9452H14.3874V16.6834H9.9694V30.9452Z" fill="black"/>
</svg> 
