<svg width="25" height="26" viewBox="0 0 25 26" fill="none" xmlns="http://www.w3.org/2000/svg">
  <path d="M16.6667 8.75336C18.3244 8.75336 19.9141 9.41184 21.0862 10.5839C22.2583 11.756 22.9167 13.3458 22.9167 15.0034V22.295H18.7501V15.0034C18.7501 14.4508 18.5306 13.9209 18.1399 13.5302C17.7492 13.1395 17.2193 12.92 16.6667 12.92C16.1142 12.92 15.5843 13.1395 15.1936 13.5302C14.8029 13.9209 14.5834 14.4508 14.5834 15.0034V22.295H10.4167V15.0034C10.4167 13.3458 11.0752 11.756 12.2473 10.5839C13.4194 9.41184 15.0091 8.75336 16.6667 8.75336Z" stroke="white" stroke-width="2" stroke-linecap="round" stroke-linejoin="round"/>
  <path d="M6.24992 9.79504H2.08325V22.295H6.24992V9.79504Z" stroke="white" stroke-width="2" stroke-linecap="round" stroke-linejoin="round"/>
  <path d="M4.16659 6.67002C5.31718 6.67002 6.24992 5.73728 6.24992 4.58669C6.24992 3.4361 5.31718 2.50336 4.16659 2.50336C3.01599 2.50336 2.08325 3.4361 2.08325 4.58669C2.08325 5.73728 3.01599 6.67002 4.16659 6.67002Z" stroke="white" stroke-width="2" stroke-linecap="round" stroke-linejoin="round"/>
</svg> 
