<svg width="24" height="26" viewBox="0 0 24 26" fill="none" xmlns="http://www.w3.org/2000/svg">
<g id="Icon / Mastodon">
<path id="mastodon" d="M12.319 0.462524C10.619 0.480805 9.10174 0.581345 7.76729 0.764147C6.2866 0.965229 5.11667 1.26685 4.2575 1.66901L3.87362 1.88838C3.58114 2.07118 3.28865 2.29968 2.99617 2.57388C2.59401 2.95777 2.24668 3.38735 1.9542 3.86263C1.57032 4.46588 1.27784 5.13311 1.07675 5.86431C0.820832 6.72348 0.692871 7.66491 0.692871 8.6886V9.70315C0.692871 11.1107 0.702011 12.1984 0.720291 12.9662C0.775132 15.0318 0.939653 16.7501 1.21386 18.1212C1.56118 19.8578 2.12786 21.2653 2.91391 22.3439C3.82792 23.5686 5.05269 24.3821 6.58822 24.7843C8.58076 25.3144 10.5002 25.5338 12.3465 25.4424C13.1874 25.3875 13.9917 25.2778 14.7595 25.1133C15.3079 24.9854 15.8106 24.83 16.2676 24.6472L16.7885 24.4278L16.6789 22.3713L16.0756 22.5358C15.5638 22.6455 15.0428 22.7369 14.5127 22.81C13.7632 22.9197 13.0503 22.9563 12.3739 22.9197C11.405 22.9014 10.6738 22.8374 10.1803 22.7278C9.39423 22.5815 8.78184 22.3073 8.34312 21.9052C7.81299 21.4481 7.49309 20.7901 7.38341 19.9309C7.34685 19.675 7.32857 19.4099 7.32857 19.1357L8.01407 19.3002C8.58076 19.4099 9.17486 19.5013 9.79639 19.5744C10.6738 19.7024 11.5239 19.7847 12.3465 19.8212C13.1142 19.8578 13.9551 19.8395 14.8691 19.7664C15.4541 19.7298 16.2584 19.6476 17.2821 19.5196C18.3058 19.3916 19.2838 19.1174 20.2161 18.697C21.1118 18.2765 21.8567 17.7784 22.4508 17.2026C23.0449 16.6268 23.3968 16.0464 23.5065 15.4614C23.671 14.6388 23.7898 13.6425 23.863 12.4726C23.9361 11.6317 23.9818 10.7451 24.0001 9.81283V8.6886C24.0001 7.66491 23.8721 6.72348 23.6162 5.86431C23.4151 5.13311 23.1226 4.46588 22.7387 3.86263C22.4463 3.38735 22.0989 2.95777 21.6968 2.57388C21.4226 2.29968 21.1301 2.07118 20.8193 1.88838C20.6 1.74214 20.472 1.66901 20.4354 1.66901C19.5946 1.26685 18.4338 0.965229 16.9531 0.764147C15.6003 0.581345 14.0831 0.480805 12.4013 0.462524H12.319ZM8.69958 4.71266C10.034 4.71266 11.0303 5.22451 11.6884 6.2482L12.3465 7.31758L13.0046 6.2482C13.6626 5.22451 14.6589 4.71266 15.9934 4.71266C17.145 4.71266 18.0682 5.10568 18.7628 5.89173C19.4575 6.67778 19.8048 7.74717 19.8048 9.0999V15.6533H17.1999V9.29184C17.1999 7.93911 16.6423 7.26274 15.5272 7.26274C14.2659 7.26274 13.6352 8.06707 13.6352 9.67572V13.1581H11.0577V9.67572C11.0577 8.06707 10.4271 7.26274 9.16572 7.26274C8.05063 7.26274 7.49309 7.93911 7.49309 9.29184V15.6533H4.88817V9.0999C4.88817 7.74717 5.23549 6.67778 5.93014 5.89173C6.62478 5.10568 7.54793 4.71266 8.69958 4.71266Z" fill="white"/>
</g>
</svg>
