<svg width="38" height="40" viewBox="0 0 38 40" fill="none" xmlns="http://www.w3.org/2000/svg">
  <path d="M19.1019 0C16.3818 0.0292483 13.9542 0.190114 11.8191 0.482596C9.44996 0.804327 7.57808 1.28692 6.20341 1.93038L5.5892 2.28136C5.12122 2.57385 4.65325 2.93945 4.18528 3.37817C3.54182 3.99239 2.9861 4.67972 2.51813 5.44018C1.90392 6.40537 1.43594 7.47293 1.11421 8.64286C0.704738 10.0175 0.5 11.5238 0.5 13.1617V14.785C0.5 17.0371 0.514624 18.7774 0.543872 20.0058C0.631617 23.3109 0.894851 26.0602 1.33358 28.2538C1.88929 31.0324 2.79599 33.2845 4.05366 35.0102C5.51607 36.9698 7.47571 38.2713 9.93256 38.9148C13.1206 39.763 16.1917 40.114 19.1458 39.9677C20.4912 39.88 21.7781 39.7045 23.0065 39.4413C23.884 39.2365 24.6883 38.9879 25.4195 38.6954L26.2531 38.3445L26.0776 35.054L25.1124 35.3173C24.2935 35.4928 23.4599 35.639 22.6117 35.756C21.4125 35.9315 20.2718 35.99 19.1896 35.9315C17.6395 35.9022 16.4695 35.7999 15.6798 35.6244C14.4222 35.3904 13.4424 34.9517 12.7404 34.3082C11.8922 33.577 11.3803 32.5241 11.2049 31.1494C11.1464 30.7399 11.1171 30.3158 11.1171 29.8771L12.2139 30.1403C13.1206 30.3158 14.0712 30.4621 15.0656 30.5791C16.4695 30.7838 17.8296 30.9154 19.1458 30.9739C20.3742 31.0324 21.7196 31.0032 23.182 30.8862C24.118 30.8277 25.4049 30.696 27.0428 30.4913C28.6807 30.2866 30.2455 29.8478 31.7371 29.1751C33.1703 28.5024 34.3622 27.7054 35.3127 26.7841C36.2633 25.8628 36.8263 24.9341 37.0018 23.9982C37.265 22.682 37.4552 21.088 37.5722 19.2161C37.6892 17.8707 37.7623 16.4521 37.7915 14.9605V13.1617C37.7915 11.5238 37.5868 10.0175 37.1773 8.64286C36.8556 7.47293 36.3876 6.40537 35.7734 5.44018C35.3054 4.67972 34.7497 3.99239 34.1062 3.37817C33.6675 2.93945 33.1995 2.57385 32.7023 2.28136C32.3513 2.04738 32.1466 1.93038 32.0881 1.93038C30.7427 1.28692 28.8854 0.804327 26.5163 0.482596C24.3519 0.190114 21.9243 0.0292483 19.2335 0H19.1019ZM13.3107 6.80022C15.4459 6.80022 17.0399 7.61917 18.0928 9.25707L19.1458 10.9681L20.1987 9.25707C21.2516 7.61917 22.8457 6.80022 24.9808 6.80022C26.8234 6.80022 28.3005 7.42906 29.4119 8.68673C30.5233 9.94441 31.079 11.6554 31.079 13.8198V24.3053H26.9112V14.1269C26.9112 11.9625 26.0191 10.8804 24.235 10.8804C22.2168 10.8804 21.2078 12.1673 21.2078 14.7411V20.3129H17.0838V14.7411C17.0838 12.1673 16.0747 10.8804 14.0566 10.8804C12.2724 10.8804 11.3803 11.9625 11.3803 14.1269V24.3053H7.21247V13.8198C7.21247 11.6554 7.76819 9.94441 8.87962 8.68673C9.99106 7.42906 11.4681 6.80022 13.3107 6.80022Z" fill="black"/>
</svg> 
