<svg width="484" height="62" viewBox="0 0 484 62" fill="none" xmlns="http://www.w3.org/2000/svg">
<g clip-path="url(#clip0_187_236)">
<path d="M28.504 40.007C28.168 40.007 28 39.839 28 39.503V16.931C28 16.595 28.168 16.427 28.504 16.427H36.964C40.756 16.427 43.564 17.303 45.388 19.055C47.212 20.783 48.124 23.351 48.124 26.759V29.387C48.124 32.891 47.212 35.543 45.388 37.343C43.564 39.119 40.756 40.007 36.964 40.007H28.504ZM33.94 34.931H36.568C38.512 34.931 39.928 34.439 40.816 33.455C41.728 32.447 42.184 31.019 42.184 29.171V26.975C42.184 25.223 41.728 23.879 40.816 22.943C39.928 21.983 38.512 21.503 36.568 21.503H33.94V34.931Z" fill="black"/>
<path d="M50.4909 39.511C50.1176 39.511 49.9893 39.3243 50.1059 38.951L57.3859 16.971C57.4793 16.7143 57.6659 16.586 57.9459 16.586H64.1759C64.4559 16.586 64.6426 16.7143 64.7359 16.971L72.0509 38.951C72.0976 39.1143 72.0859 39.2543 72.0159 39.371C71.9693 39.4643 71.8526 39.511 71.6659 39.511H66.4159C66.1126 39.511 65.9259 39.3827 65.8559 39.126L62.3209 26.456C62.0876 25.616 61.8659 24.776 61.6559 23.936C61.4459 23.096 61.2476 22.2677 61.0609 21.451H60.9909C60.8043 22.291 60.6059 23.131 60.3959 23.971C60.1859 24.811 59.9643 25.651 59.7309 26.491L56.2659 39.091C56.1959 39.371 56.0093 39.511 55.7059 39.511H50.4909ZM56.4409 35.416L57.3509 30.901H64.5959L65.5409 35.416H56.4409ZM77.7143 39.511C77.4109 39.511 77.2593 39.3477 77.2593 39.021V21.591H71.5193C71.1926 21.591 71.0293 21.4277 71.0293 21.101V17.076C71.0293 16.7493 71.1926 16.586 71.5193 16.586H88.7393C89.0426 16.586 89.1943 16.7493 89.1943 17.076V21.101C89.1943 21.4277 89.0426 21.591 88.7393 21.591H82.9993V39.021C82.9993 39.3477 82.8359 39.511 82.5093 39.511H77.7143ZM88.5417 39.511C88.1684 39.511 88.0401 39.3243 88.1567 38.951L95.4367 16.971C95.5301 16.7143 95.7167 16.586 95.9967 16.586H102.227C102.507 16.586 102.693 16.7143 102.787 16.971L110.102 38.951C110.148 39.1143 110.137 39.2543 110.067 39.371C110.02 39.4643 109.903 39.511 109.717 39.511H104.467C104.163 39.511 103.977 39.3827 103.907 39.126L100.372 26.456C100.138 25.616 99.9167 24.776 99.7067 23.936C99.4967 23.096 99.2984 22.2677 99.1117 21.451H99.0417C98.8551 22.291 98.6567 23.131 98.4467 23.971C98.2367 24.811 98.0151 25.651 97.7817 26.491L94.3167 39.091C94.2467 39.371 94.0601 39.511 93.7567 39.511H88.5417ZM94.4917 35.416L95.4017 30.901H102.647L103.592 35.416H94.4917Z" fill="black"/>
<rect x="121" y="11.511" width="29.5" height="30" rx="5" fill="#0B9A33"/>
<path d="M132.876 39.5109C132.564 39.5109 132.408 39.3429 132.408 39.0069V21.0789H126.504C126.168 21.0789 126 20.9109 126 20.5749V16.4349C126 16.0989 126.168 15.9309 126.504 15.9309H144.216C144.528 15.9309 144.684 16.0989 144.684 16.4349V20.5749C144.684 20.9109 144.528 21.0789 144.216 21.0789H138.312V39.0069C138.312 39.3429 138.144 39.5109 137.808 39.5109H132.876Z" fill="white"/>
<path d="M156.555 39.511C156.228 39.511 156.065 39.3477 156.065 39.021V17.076C156.065 16.7493 156.228 16.586 156.555 16.586H164.64C167.93 16.586 170.298 17.2277 171.745 18.511C173.192 19.7943 173.915 21.626 173.915 24.006C173.915 25.546 173.588 26.8643 172.935 27.961C172.282 29.0577 171.232 29.8277 169.785 30.271V30.341L175.175 38.916C175.292 39.0793 175.315 39.2193 175.245 39.336C175.175 39.4527 175.047 39.511 174.86 39.511H169.47C169.213 39.511 169.015 39.406 168.875 39.196L164.115 31.146H161.84V39.021C161.84 39.3477 161.677 39.511 161.35 39.511H156.555ZM161.84 26.631H164.64C165.807 26.631 166.682 26.4327 167.265 26.036C167.848 25.616 168.14 24.951 168.14 24.041C168.14 23.1543 167.872 22.5127 167.335 22.116C166.822 21.696 165.97 21.486 164.78 21.486H161.84V26.631ZM177.373 39.511C176.999 39.511 176.871 39.3243 176.988 38.951L184.268 16.971C184.361 16.7143 184.548 16.586 184.828 16.586H191.058C191.338 16.586 191.524 16.7143 191.618 16.971L198.933 38.951C198.979 39.1143 198.968 39.2543 198.898 39.371C198.851 39.4643 198.734 39.511 198.548 39.511H193.298C192.994 39.511 192.808 39.3827 192.738 39.126L189.203 26.456C188.969 25.616 188.748 24.776 188.538 23.936C188.328 23.096 188.129 22.2677 187.943 21.451H187.873C187.686 22.291 187.488 23.131 187.278 23.971C187.068 24.811 186.846 25.651 186.613 26.491L183.148 39.091C183.078 39.371 182.891 39.511 182.588 39.511H177.373ZM183.323 35.416L184.233 30.901H191.478L192.423 35.416H183.323ZM201.886 39.511C201.559 39.511 201.396 39.3477 201.396 39.021V17.076C201.396 16.7493 201.559 16.586 201.886 16.586H208.011C208.268 16.586 208.454 16.7027 208.571 16.936L212.981 25.721C213.308 26.3743 213.646 27.0743 213.996 27.821C214.346 28.5677 214.661 29.3027 214.941 30.026C215.244 30.7493 215.489 31.391 215.676 31.951H215.781C215.734 31.5077 215.688 31.006 215.641 30.446C215.618 29.886 215.583 29.3143 215.536 28.731C215.513 28.1477 215.489 27.576 215.466 27.016C215.466 26.456 215.466 25.9543 215.466 25.511V17.076C215.466 16.7493 215.618 16.586 215.921 16.586H220.541C220.868 16.586 221.031 16.7493 221.031 17.076V39.021C221.031 39.3477 220.868 39.511 220.541 39.511H214.416C214.183 39.511 213.996 39.3943 213.856 39.161L209.656 30.796C209.329 30.166 209.003 29.466 208.676 28.696C208.373 27.926 208.069 27.1677 207.766 26.421C207.463 25.651 207.183 24.9743 206.926 24.391H206.821C206.844 24.881 206.868 25.406 206.891 25.966C206.914 26.526 206.926 27.1093 206.926 27.716C206.949 28.2993 206.961 28.871 206.961 29.431C206.961 29.991 206.961 30.5277 206.961 31.041V39.021C206.961 39.3477 206.798 39.511 206.471 39.511H201.886ZM233.386 39.931C231.286 39.931 229.559 39.6743 228.206 39.161C226.876 38.6243 225.919 37.8193 225.336 36.746C224.776 35.6727 224.566 34.331 224.706 32.721C224.753 32.371 224.928 32.196 225.231 32.196H229.921C230.248 32.196 230.399 32.3477 230.376 32.651C230.353 33.421 230.598 34.016 231.111 34.436C231.648 34.8327 232.464 35.031 233.561 35.031C234.658 35.031 235.451 34.891 235.941 34.611C236.454 34.331 236.711 33.8877 236.711 33.281C236.711 33.0243 236.653 32.791 236.536 32.581C236.419 32.3477 236.209 32.1377 235.906 31.951C235.603 31.741 235.183 31.531 234.646 31.321L229.641 29.116C228.428 28.5793 227.483 28.0077 226.806 27.401C226.129 26.771 225.651 26.071 225.371 25.301C225.091 24.5077 224.951 23.5977 224.951 22.571C224.974 20.541 225.674 18.966 227.051 17.846C228.428 16.726 230.493 16.166 233.246 16.166C235.299 16.166 237.003 16.4343 238.356 16.971C239.709 17.4843 240.689 18.2543 241.296 19.281C241.926 20.2843 242.159 21.5793 241.996 23.166C241.973 23.5627 241.809 23.761 241.506 23.761H236.816C236.653 23.761 236.524 23.7143 236.431 23.621C236.361 23.5043 236.338 23.3527 236.361 23.166C236.408 22.536 236.163 22.011 235.626 21.591C235.113 21.171 234.366 20.961 233.386 20.961C232.499 20.961 231.834 21.1127 231.391 21.416C230.948 21.696 230.726 22.116 230.726 22.676C230.726 22.956 230.796 23.2127 230.936 23.446C231.076 23.656 231.298 23.866 231.601 24.076C231.904 24.2627 232.313 24.4727 232.826 24.706L237.796 26.841C238.986 27.3543 239.931 27.9143 240.631 28.521C241.331 29.1277 241.821 29.8393 242.101 30.656C242.381 31.4493 242.509 32.371 242.486 33.421C242.463 35.5677 241.739 37.1893 240.316 38.286C238.893 39.3827 236.583 39.931 233.386 39.931ZM246.841 39.511C246.514 39.511 246.351 39.3477 246.351 39.021V17.076C246.351 16.7493 246.514 16.586 246.841 16.586H261.401C261.704 16.586 261.856 16.7493 261.856 17.076V21.101C261.856 21.4277 261.704 21.591 261.401 21.591H252.126V25.931H260.071C260.374 25.931 260.526 26.0943 260.526 26.421V30.341C260.526 30.6443 260.374 30.796 260.071 30.796H252.126V39.021C252.126 39.3477 251.974 39.511 251.671 39.511H246.841ZM265.935 39.511C265.608 39.511 265.445 39.3477 265.445 39.021V17.076C265.445 16.7493 265.608 16.586 265.935 16.586H280.495C280.798 16.586 280.95 16.7493 280.95 17.076V21.101C280.95 21.4277 280.798 21.591 280.495 21.591H271.22V25.616H279.655C279.958 25.616 280.11 25.7793 280.11 26.106V29.851C280.11 30.1777 279.958 30.341 279.655 30.341H271.22V34.506H280.495C280.798 34.506 280.95 34.6693 280.95 34.996V39.021C280.95 39.3477 280.798 39.511 280.495 39.511H265.935ZM285.644 39.511C285.317 39.511 285.154 39.3477 285.154 39.021V17.076C285.154 16.7493 285.317 16.586 285.644 16.586H293.729C297.019 16.586 299.387 17.2277 300.834 18.511C302.281 19.7943 303.004 21.626 303.004 24.006C303.004 25.546 302.677 26.8643 302.024 27.961C301.371 29.0577 300.321 29.8277 298.874 30.271V30.341L304.264 38.916C304.381 39.0793 304.404 39.2193 304.334 39.336C304.264 39.4527 304.136 39.511 303.949 39.511H298.559C298.302 39.511 298.104 39.406 297.964 39.196L293.204 31.146H290.929V39.021C290.929 39.3477 290.766 39.511 290.439 39.511H285.644ZM290.929 26.631H293.729C294.896 26.631 295.771 26.4327 296.354 26.036C296.937 25.616 297.229 24.951 297.229 24.041C297.229 23.1543 296.961 22.5127 296.424 22.116C295.911 21.696 295.059 21.486 293.869 21.486H290.929V26.631Z" fill="black"/>
<path d="M318.555 39.511C318.228 39.511 318.065 39.3477 318.065 39.021V17.076C318.065 16.7493 318.228 16.586 318.555 16.586H323.35C323.677 16.586 323.84 16.7493 323.84 17.076V39.021C323.84 39.3477 323.677 39.511 323.35 39.511H318.555ZM328.967 39.511C328.64 39.511 328.477 39.3477 328.477 39.021V17.076C328.477 16.7493 328.64 16.586 328.967 16.586H335.092C335.349 16.586 335.535 16.7027 335.652 16.936L340.062 25.721C340.389 26.3743 340.727 27.0743 341.077 27.821C341.427 28.5677 341.742 29.3027 342.022 30.026C342.325 30.7493 342.57 31.391 342.757 31.951H342.862C342.815 31.5077 342.769 31.006 342.722 30.446C342.699 29.886 342.664 29.3143 342.617 28.731C342.594 28.1477 342.57 27.576 342.547 27.016C342.547 26.456 342.547 25.9543 342.547 25.511V17.076C342.547 16.7493 342.699 16.586 343.002 16.586H347.622C347.949 16.586 348.112 16.7493 348.112 17.076V39.021C348.112 39.3477 347.949 39.511 347.622 39.511H341.497C341.264 39.511 341.077 39.3943 340.937 39.161L336.737 30.796C336.41 30.166 336.084 29.466 335.757 28.696C335.454 27.926 335.15 27.1677 334.847 26.421C334.544 25.651 334.264 24.9743 334.007 24.391H333.902C333.925 24.881 333.949 25.406 333.972 25.966C333.995 26.526 334.007 27.1093 334.007 27.716C334.03 28.2993 334.042 28.871 334.042 29.431C334.042 29.991 334.042 30.5277 334.042 31.041V39.021C334.042 39.3477 333.879 39.511 333.552 39.511H328.967ZM353.222 39.511C352.895 39.511 352.732 39.3477 352.732 39.021V17.076C352.732 16.7493 352.895 16.586 353.222 16.586H358.017C358.344 16.586 358.507 16.7493 358.507 17.076V39.021C358.507 39.3477 358.344 39.511 358.017 39.511H353.222ZM368.429 39.511C368.126 39.511 367.974 39.3477 367.974 39.021V21.591H362.234C361.907 21.591 361.744 21.4277 361.744 21.101V17.076C361.744 16.7493 361.907 16.586 362.234 16.586H379.454C379.757 16.586 379.909 16.7493 379.909 17.076V21.101C379.909 21.4277 379.757 21.591 379.454 21.591H373.714V39.021C373.714 39.3477 373.551 39.511 373.224 39.511H368.429ZM383.617 39.511C383.29 39.511 383.127 39.3477 383.127 39.021V17.076C383.127 16.7493 383.29 16.586 383.617 16.586H388.412C388.738 16.586 388.902 16.7493 388.902 17.076V39.021C388.902 39.3477 388.738 39.511 388.412 39.511H383.617ZM391.754 39.511C391.38 39.511 391.252 39.3243 391.369 38.951L398.649 16.971C398.742 16.7143 398.929 16.586 399.209 16.586H405.439C405.719 16.586 405.905 16.7143 405.999 16.971L413.314 38.951C413.36 39.1143 413.349 39.2543 413.279 39.371C413.232 39.4643 413.115 39.511 412.929 39.511H407.679C407.375 39.511 407.189 39.3827 407.119 39.126L403.584 26.456C403.35 25.616 403.129 24.776 402.919 23.936C402.709 23.096 402.51 22.2677 402.324 21.451H402.254C402.067 22.291 401.869 23.131 401.659 23.971C401.449 24.811 401.227 25.651 400.994 26.491L397.529 39.091C397.459 39.371 397.272 39.511 396.969 39.511H391.754ZM397.704 35.416L398.614 30.901H405.859L406.804 35.416H397.704ZM418.977 39.511C418.674 39.511 418.522 39.3477 418.522 39.021V21.591H412.782C412.455 21.591 412.292 21.4277 412.292 21.101V17.076C412.292 16.7493 412.455 16.586 412.782 16.586H430.002C430.305 16.586 430.457 16.7493 430.457 17.076V21.101C430.457 21.4277 430.305 21.591 430.002 21.591H424.262V39.021C424.262 39.3477 424.099 39.511 423.772 39.511H418.977ZM434.164 39.511C433.838 39.511 433.674 39.3477 433.674 39.021V17.076C433.674 16.7493 433.838 16.586 434.164 16.586H438.959C439.286 16.586 439.449 16.7493 439.449 17.076V39.021C439.449 39.3477 439.286 39.511 438.959 39.511H434.164ZM450.001 39.511C449.721 39.511 449.535 39.3827 449.441 39.126L442.301 17.146C442.208 16.7727 442.336 16.586 442.686 16.586H447.936C448.24 16.586 448.426 16.7143 448.496 16.971L451.926 29.431C452.16 30.2943 452.37 31.1577 452.556 32.021C452.743 32.8843 452.918 33.7477 453.081 34.611H453.186C453.35 33.7243 453.536 32.8493 453.746 31.986C453.956 31.1227 454.178 30.2477 454.411 29.361L457.806 17.006C457.876 16.726 458.063 16.586 458.366 16.586H463.581C463.955 16.586 464.083 16.7727 463.966 17.146L456.791 39.126C456.721 39.3827 456.535 39.511 456.231 39.511H450.001ZM467.293 39.511C466.967 39.511 466.803 39.3477 466.803 39.021V17.076C466.803 16.7493 466.967 16.586 467.293 16.586H481.853C482.157 16.586 482.308 16.7493 482.308 17.076V21.101C482.308 21.4277 482.157 21.591 481.853 21.591H472.578V25.616H481.013C481.317 25.616 481.468 25.7793 481.468 26.106V29.851C481.468 30.1777 481.317 30.341 481.013 30.341H472.578V34.506H481.853C482.157 34.506 482.308 34.6693 482.308 34.996V39.021C482.308 39.3477 482.157 39.511 481.853 39.511H467.293Z" fill="black"/>
<path d="M226.802 55.5847H24.3592C14.0584 55.5847 5.67822 47.2686 5.67822 37.0482V9.104C5.67822 7.43958 7.02768 6.09155 8.69051 6.09155C10.3533 6.09155 11.7028 7.44108 11.7028 9.104V37.0482C11.7028 43.9473 17.3795 49.5583 24.3577 49.5583H226.8C228.465 49.5583 229.813 50.9079 229.813 52.5708C229.813 54.2337 228.463 55.5832 226.8 55.5832L226.802 55.5847Z" fill="black"/>
<path d="M13.0377 13.4493C15.4379 11.049 15.4379 7.15732 13.0377 4.75703C10.6375 2.35673 6.74608 2.35673 4.3459 4.75703C1.94573 7.15732 1.94573 11.049 4.3459 13.4493C6.74608 15.8496 10.6375 15.8496 13.0377 13.4493Z" fill="#0B9A33"/>
<path d="M8.70686 16.7528C8.14308 16.7528 7.57481 16.6898 7.00954 16.5624C2.89669 15.6342 0.30573 11.5347 1.23386 7.4216C1.68368 5.42879 2.8817 3.73139 4.6075 2.63977C6.33331 1.54815 8.38149 1.19577 10.3742 1.64412C12.3669 2.09396 14.0642 3.29204 15.1558 5.01794C16.2473 6.74383 16.5997 8.79211 16.1514 10.7849C15.7016 12.7777 14.5035 14.4751 12.7777 15.5667C11.5407 16.3495 10.1373 16.7513 8.70836 16.7513L8.70686 16.7528ZM8.68287 4.45563C7.81472 4.45563 6.96156 4.70005 6.20886 5.17538C5.15928 5.83815 4.43207 6.87129 4.15768 8.08136C3.59391 10.581 5.16828 13.0731 7.66927 13.6369C8.87929 13.9098 10.1238 13.6954 11.1734 13.0326C12.2229 12.3699 12.9502 11.3382 13.223 10.1266C13.4959 8.91507 13.2815 7.67051 12.6188 6.62238C11.9561 5.57274 10.9245 4.8455 9.71295 4.57109C9.36959 4.49312 9.02473 4.45563 8.68137 4.45563H8.68287Z" fill="black"/>
<path d="M231.147 56.9175C233.547 54.5172 233.547 50.6256 231.147 48.2253C228.747 45.825 224.855 45.825 222.455 48.2253C220.055 50.6256 220.055 54.5172 222.455 56.9175C224.855 59.3178 228.747 59.3178 231.147 56.9175Z" fill="#0B9A33"/>
<path d="M226.817 60.221C226.253 60.221 225.683 60.158 225.12 60.0305C223.127 59.5807 221.43 58.3826 220.338 56.6567C219.247 54.9308 218.894 52.8825 219.342 50.8897C219.792 48.8969 220.99 47.1995 222.716 46.1079C224.442 45.0163 226.49 44.6639 228.483 45.1123C230.475 45.5621 232.173 46.7602 233.264 48.4861C234.356 50.212 234.708 52.2602 234.26 54.2531C233.812 56.2459 232.612 57.9433 230.886 59.0349C229.649 59.8176 228.246 60.2195 226.817 60.2195V60.221ZM226.793 47.9238C225.925 47.9238 225.072 48.1682 224.319 48.6435C223.269 49.3063 222.542 50.3394 222.268 51.5495C221.995 52.7596 222.209 54.0056 222.872 55.0538C223.535 56.1019 224.568 56.8307 225.778 57.1051C226.988 57.378 228.234 57.1635 229.282 56.5008C230.332 55.838 231.059 54.8064 231.332 53.5948C231.605 52.3832 231.39 51.1386 230.727 50.0905C230.065 49.0409 229.033 48.3136 227.822 48.0392C227.478 47.9613 227.133 47.9238 226.79 47.9238H226.793Z" fill="black"/>
</g>
<defs>
<clipPath id="clip0_187_236">
<rect width="484" height="60.8528" fill="white" transform="translate(0 0.410889)"/>
</clipPath>
</defs>
</svg>
