<svg width="126" height="126" viewBox="0 0 126 126" fill="none" xmlns="http://www.w3.org/2000/svg">
<path d="M31.5 110.25L31.5 47.25" stroke="white" stroke-width="10" stroke-linecap="round" stroke-linejoin="round"/>
<path d="M92.5 86C98.8513 86 104 91.1487 104 97.5C104 103.851 98.8513 109 92.5 109C86.1487 109 81 103.851 81 97.5C81 91.1487 86.1487 86 92.5 86Z" fill="#0B9A33" stroke="white" stroke-width="7" stroke-linecap="round" stroke-linejoin="round"/>
<path d="M31.5 31C37.8513 31 43 36.1487 43 42.5C43 48.8513 37.8513 54 31.5 54C25.1487 54 20 48.8513 20 42.5C20 36.1487 25.1487 31 31.5 31Z" fill="#0B9A33" stroke="white" stroke-width="7" stroke-linecap="round" stroke-linejoin="round"/>
<path d="M92.5 84.75C92.5 72.2185 87.5219 60.2003 78.6608 51.3392C69.7997 42.4781 57.7815 37.5 45.25 37.5" stroke="white" stroke-width="10" stroke-linecap="round" stroke-linejoin="round"/>
</svg>
