<svg width="489" height="304" viewBox="0 0 489 304" fill="none" xmlns="http://www.w3.org/2000/svg">
<path fill-rule="evenodd" clip-rule="evenodd" d="M156.639 0.305664C153.855 0.305664 151.598 2.5627 151.598 5.3469V183.311C151.598 204.084 145.606 218.373 136.7 227.631C127.767 236.918 115.375 241.691 101.556 242.402C73.6657 243.837 41.3595 240.144 24.7301 215.017C23.1935 212.695 20.0657 212.059 17.7439 213.595C15.4221 215.132 14.7856 218.26 16.3222 220.581C34.9801 248.774 70.7304 254.084 102.074 252.471C117.873 251.658 132.893 246.134 143.967 234.621C155.069 223.08 161.68 206.069 161.68 183.311V5.3469C161.68 2.5627 159.423 0.305664 156.639 0.305664Z" fill="#0E89E4"/>
<path fill-rule="evenodd" clip-rule="evenodd" d="M135.773 27.5313C145.669 39.6158 151.599 58.0131 151.599 84.6061V284.056C151.599 289.226 155.79 293.418 160.961 293.418H195.169C197.954 293.418 200.211 295.675 200.211 298.459C200.211 301.243 197.954 303.5 195.169 303.5H160.961C150.222 303.5 141.516 294.795 141.516 284.056V84.6061C141.516 59.3754 135.878 43.574 127.972 33.9192C120.143 24.358 109.541 20.1605 98.0854 19.2484C86.5329 18.3286 74.3408 20.7903 64.0528 24.3656C53.6385 27.9848 45.8783 32.4935 42.9975 35.1058C40.935 36.976 37.7469 36.8202 35.8766 34.7577C34.0064 32.6952 34.1622 29.5071 36.2247 27.6368C40.5457 23.7186 49.7546 18.6605 60.7431 14.8418C71.8578 10.9793 85.5021 8.13216 98.8857 9.19776C112.366 10.271 125.8 15.3532 135.773 27.5313Z" fill="#40FFD2"/>
<path fill-rule="evenodd" clip-rule="evenodd" d="M484.403 29.1322C487.177 29.3777 489.226 31.8249 488.981 34.5982C485.296 76.2282 471.382 101.04 454.506 115.087C437.802 128.991 418.875 131.778 405.956 130.658L5.04122 130.658C2.25704 130.658 -7.40611e-06 128.401 -7.19843e-06 125.616C-6.99075e-06 122.832 2.25704 120.575 5.04122 120.575L406.408 120.575L406.636 120.596C417.479 121.581 433.713 119.277 448.056 107.338C462.327 95.4588 475.42 73.4595 478.937 33.7095C479.183 30.9361 481.63 28.8868 484.403 29.1322Z" fill="white"/>
<path fill-rule="evenodd" clip-rule="evenodd" d="M482.519 135.922C482.519 138.706 480.262 140.963 477.478 140.963L5.04178 140.963C2.2576 140.963 0.000549316 138.706 0.000549316 135.922C0.000549316 133.138 2.2576 130.881 5.04178 130.881L477.478 130.881C480.262 130.881 482.519 133.138 482.519 135.922Z" fill="#0B9A33"/>
<path d="M151.5 54C157.851 54 163 59.1487 163 65.5C163 71.8513 157.851 77 151.5 77C145.149 77 140 71.8513 140 65.5C140 59.1487 145.149 54 151.5 54Z" fill="#0B9A33" stroke="white" stroke-width="7" stroke-linecap="round" stroke-linejoin="round"/>
<path d="M151.5 119C157.851 119 163 124.149 163 130.5C163 136.851 157.851 142 151.5 142C145.149 142 140 136.851 140 130.5C140 124.149 145.149 119 151.5 119Z" fill="#0B9A33" stroke="white" stroke-width="7" stroke-linecap="round" stroke-linejoin="round"/>
</svg>
